<?xml version="1.0" encoding="UTF-8"?><svg xmlns="http://www.w3.org/2000/svg" xmlns:xlink="http://www.w3.org/1999/xlink" version="1.1" id="Layer_1" x="0px" y="0px" viewBox="0 0 24 24" xml:space="preserve"><path fill="#303C42" d="M23.993 14.5c-.033-1.427-.207-3.07-.55-3.73-.195-.38-.724-.863-1.506-1.556-.147-.13-.322-.286-.487-.436l1.171-.293a.5.5 0 1 0-.242-.97l-1.621.405-.241-.465c-1.116-2.158-1.828-3.473-2.163-3.809C18.194 3.486 17.707 3 12 3s-6.194.486-6.354.646c-.335.336-1.047 1.65-2.163 3.809l-.24.465-1.622-.405a.5.5 0 1 0-.242.97l1.17.293c-.164.15-.339.306-.486.436-.782.693-1.31 1.176-1.507 1.556-.342.66-.516 2.303-.549 3.73H0v5c0 .827.673 1.5 1.5 1.5h1a1.5 1.5 0 0 0 1.495-1.451C6.443 19.82 9.705 20 12 20s5.557-.18 8.005-.451A1.5 1.5 0 0 0 21.5 21h1c.827 0 1.5-.673 1.5-1.5v-5h-.007z"/><path fill="#E6E6E6" d="M18.935 18.655c-.126-.322-.328-.755-.581-1.009-.616-.615-5.4-.646-6.354-.646s-5.738.031-6.354.646c-.253.254-.455.687-.581 1.01-1.933-.187-3.354-.406-3.73-.542C1.189 17.833 1 16.747 1 15c0-.259.007-.518.017-.776.88.322 2.552.811 4.624.84.219.177.45.331.709.413 1.264.399 4.584.523 5.65.523s4.386-.124 5.65-.523c.259-.082.49-.236.71-.414a14.276 14.276 0 0 0 4.623-.839c.01.258.017.517.017.776 0 1.747-.188 2.833-.336 3.114-.375.136-1.796.355-3.729.541z"/><path fill="#F2F2F2" d="M4.055 12.356c.1.426.344 1.066.71 1.67a13.269 13.269 0 0 1-3.684-.847c.058-.662.145-1.232.246-1.609.615.123 1.8.394 2.728.786z"/><path fill="#F2F2F2" d="M19.945 12.356c.926-.391 2.113-.662 2.728-.785.1.377.188.946.246 1.608-.575.228-1.93.698-3.684.846.366-.603.61-1.243.71-1.67z"/><path opacity="0.1" d="M4.176 12.763a4.404 4.404 0 0 1-.12-.407c-.928-.392-2.114-.663-2.729-.786a6.13 6.13 0 0 0-.107.514c.8.136 1.972.367 2.956.679z"/><path opacity="0.1" d="M22.776 12.06a6.024 6.024 0 0 0-.103-.49c-.615.124-1.802.395-2.728.786a4.165 4.165 0 0 1-.092.323c1.018-.289 2.17-.5 2.923-.62z"/><path fill="#37474F" d="M18.028 14c-.21.248-.438.448-.678.523-1.076.34-4.22.477-5.35.477s-4.274-.137-5.35-.477c-.24-.075-.468-.275-.678-.523h12.056z"/><path fill="#37474F" d="M18.655 13H13.14l.249-.994c3.209.027 4.924.15 5.554.274-.057.194-.16.45-.288.72z"/><path fill="#F2F2F2" d="M12.11 13h-.22l-.25-.998L12 12l.36.002-.25.998z"/><path fill="#37474F" d="M10.611 12.006l.249.994H5.345a5.185 5.185 0 0 1-.288-.72c.63-.124 2.345-.247 5.554-.274z"/><path opacity="0.1" d="M18.764 12.752c.075-.175.14-.34.179-.472-.63-.124-2.345-.247-5.554-.274l-.125.5c3.031.026 4.747.132 5.5.246z"/><path opacity="0.1" d="M10.736 12.506l-.125-.5c-3.209.027-4.925.15-5.554.274.04.132.104.297.179.472.753-.114 2.47-.22 5.5-.246z"/><path fill="#7C858D" d="M6.318 4.383C6.698 4.16 9.088 4 12 4s5.301.161 5.646.354c.292.292 1.52 2.666 1.982 3.56l.216.415C18.56 8.182 16.145 8 12 8c-4.151 0-6.562.178-7.84.321l.212-.407c.462-.894 1.69-3.268 1.946-3.531z"/><linearGradient id="SVGID_1_" gradientUnits="userSpaceOnUse" x1="6.1248775" y1="4.1087155" x2="19.0097523" y2="10.1170311"><stop offset="0" stop-color="#FFF" stop-opacity="0.2"/><stop offset="1" stop-color="#FFF" stop-opacity="0"/></linearGradient><path fill="url(#SVGID_1_)" d="M6.318 4.383C6.698 4.16 9.088 4 12 4s5.301.161 5.646.354c.292.292 1.52 2.666 1.982 3.56l.216.415C18.56 8.182 16.145 8 12 8c-4.151 0-6.562.178-7.84.321l.212-.407c.462-.894 1.69-3.268 1.946-3.531z"/><path fill="#E6E6E6" d="M2.727 9.963c.22-.195.402-.36.566-.512C3.821 9.357 6.193 9 12 9c5.81 0 8.192.366 8.72.463.16.15.339.31.553.5.237.21.534.473.786.714-.688.151-1.661.405-2.486.75C18.867 11.163 16.991 11 12 11s-6.867.163-7.573.427c-.825-.345-1.798-.599-2.486-.75.252-.24.549-.504.786-.714z"/><path opacity="0.2" fill="#FFF" d="M2.727 10.536c.22-.196.402-.36.566-.512.528-.095 2.9-.451 8.707-.451 5.81 0 8.192.366 8.72.463.16.15.339.31.553.5l.29.258c.174-.043.344-.084.496-.117-.252-.24-.549-.504-.786-.714a35.17 35.17 0 0 1-.553-.5C20.192 9.366 17.81 9 12 9c-5.806 0-8.179.357-8.707.451-.164.152-.346.317-.566.512-.237.21-.534.473-.786.714.152.033.322.074.496.117l.29-.258z"/><path fill="#37474F" d="M3 19.5a.5.5 0 0 1-.5.5h-1a.5.5 0 0 1-.5-.5v-.472c.409.142 1.11.277 2 .398v.074z"/><path fill="#37474F" d="M6.11 18.748c.07-.158.138-.296.185-.35C6.7 18.195 9.472 18 12 18s5.3.194 5.646.354c.075.074.16.226.239.394A73.839 73.839 0 0 1 12 19c-2.053 0-4.12-.108-5.89-.252z"/><path opacity="0.1" d="M12 18.5c2.178 0 4.533.144 5.366.286.172-.013.352-.024.519-.038-.08-.168-.164-.32-.239-.394C17.3 18.194 14.528 18 12 18s-5.3.194-5.705.399c-.047.053-.116.19-.186.349.201.016.418.03.627.045.953-.16 3.18-.293 5.264-.293z"/><path fill="#37474F" d="M22.5 20h-1a.5.5 0 0 1-.5-.5v-.074c.89-.12 1.591-.256 2-.398v.472a.5.5 0 0 1-.5.5z"/><path opacity="0.1" d="M1 19.028v.472c.38.133 1.022.258 1.825.373A.493.493 0 0 0 3 19.5v-.074c-.89-.12-1.591-.256-2-.398z"/><path opacity="0.1" d="M21 19.426v.074c0 .15.07.281.175.373.803-.115 1.445-.24 1.825-.373v-.472c-.409.142-1.11.277-2 .398z"/><circle fill="#303C42" cx="21" cy="17" r="1"/><circle fill="#303C42" cx="3" cy="17" r="1"/><linearGradient id="SVGID_2_" gradientUnits="userSpaceOnUse" x1="0.8756764" y1="8.1556282" x2="24.3423119" y2="19.0983009"><stop offset="0" stop-color="#FFF" stop-opacity="0.2"/><stop offset="1" stop-color="#FFF" stop-opacity="0"/></linearGradient><path fill="url(#SVGID_2_)" d="M23.993 14.5c-.033-1.427-.207-3.07-.55-3.73-.195-.38-.724-.863-1.506-1.556-.147-.13-.322-.286-.487-.436l1.171-.293a.5.5 0 1 0-.242-.97l-1.621.405-.241-.465c-1.116-2.158-1.828-3.473-2.163-3.809C18.194 3.486 17.707 3 12 3s-6.194.486-6.354.646c-.335.336-1.047 1.65-2.163 3.809l-.24.465-1.622-.405a.5.5 0 1 0-.242.97l1.17.293c-.164.15-.339.306-.486.436-.782.693-1.31 1.176-1.507 1.556-.342.66-.516 2.303-.549 3.73H0v5c0 .827.673 1.5 1.5 1.5h1a1.5 1.5 0 0 0 1.495-1.451C6.443 19.82 9.705 20 12 20s5.557-.18 8.005-.451A1.5 1.5 0 0 0 21.5 21h1c.827 0 1.5-.673 1.5-1.5v-5h-.007z"/><metadata><rdf:RDF xmlns:rdf="http://www.w3.org/1999/02/22-rdf-syntax-ns#" xmlns:rdfs="http://www.w3.org/2000/01/rdf-schema#" xmlns:dc="http://purl.org/dc/elements/1.1/"><rdf:Description about="https://iconscout.com/legal#licenses" dc:title="transportation,transport,vehicles,car,logan,dacia" dc:description="transportation,transport,vehicles,car,logan,dacia" dc:publisher="Iconscout" dc:date="2017-08-16" dc:format="image/svg+xml" dc:language="en"><dc:creator><rdf:Bag><rdf:li>Those Icons</rdf:li></rdf:Bag></dc:creator></rdf:Description></rdf:RDF></metadata></svg>