<?xml version="1.0" encoding="UTF-8" standalone="no"?>
<svg xmlns:dc="http://purl.org/dc/elements/1.1/" xmlns:cc="http://creativecommons.org/ns#" xmlns:rdf="http://www.w3.org/1999/02/22-rdf-syntax-ns#" xmlns:svg="http://www.w3.org/2000/svg" xmlns="http://www.w3.org/2000/svg" xmlns:sodipodi="http://sodipodi.sourceforge.net/DTD/sodipodi-0.dtd" xmlns:inkscape="http://www.inkscape.org/namespaces/inkscape" width="100" height="100" id="svg2" version="1.1" inkscape:version="0.48.4 r9939" sodipodi:docname="css_file_format.svg">
  <defs id="defs4">
    <clipPath clipPathUnits="userSpaceOnUse" id="clipPath3789">
      <path transform="matrix(0.18360657,0,0,0.18260869,190.37192,664.37679)" d="m 674.28571,549.50507 a 261.42856,262.85715 0 1 1 -522.85712,0 261.42856,262.85715 0 1 1 522.85712,0 z" sodipodi:ry="262.85715" sodipodi:rx="261.42856" sodipodi:cy="549.50507" sodipodi:cx="412.85715" id="path3791" style="fill:#f29f4a;fill-opacity:1;stroke:none" sodipodi:type="arc"/>
    </clipPath>
  </defs>
  <sodipodi:namedview id="base" pagecolor="#ffffff" bordercolor="#666666" borderopacity="1.0" inkscape:pageopacity="0.0" inkscape:pageshadow="2" inkscape:zoom="2.8" inkscape:cx="-70.714286" inkscape:cy="43.114937" inkscape:document-units="px" inkscape:current-layer="layer1" showgrid="false" inkscape:window-width="1366" inkscape:window-height="705" inkscape:window-x="0" inkscape:window-y="26" inkscape:window-maximized="1"/>
  
  <g inkscape:label="Layer 1" inkscape:groupmode="layer" id="layer1" transform="translate(0,-952.36218)">
    <path sodipodi:type="arc" style="fill:#e32d3c;fill-opacity:1;stroke:none" id="path2985" sodipodi:cx="412.85715" sodipodi:cy="549.50507" sodipodi:rx="261.42856" sodipodi:ry="262.85715" d="m 674.28571,549.50507 c 0,145.17199 -117.04556,262.85714 -261.42856,262.85714 -144.38301,0 -261.42856,-117.68515 -261.42856,-262.85714 0,-145.172 117.04555,-262.85715 261.42856,-262.85715 144.383,0 261.42856,117.68515 261.42856,262.85715 z" transform="matrix(0.18360657,0,0,0.18260869,-25.80328,902.01778)"/>
    <rect style="opacity:0.4;fill:#f8f6de;fill-opacity:1;stroke:none" id="rect2987" width="58.714287" height="56.214287" x="266.1752" y="708.5069" ry="6.0202026" clip-path="url(#clipPath3789)" transform="translate(-216.1752,237.64099)"/>
    <path style="font-size:25px;font-style:normal;font-weight:normal;line-height:125%;letter-spacing:0px;word-spacing:0px;fill:#f8f6de;fill-opacity:1;stroke:none;font-family:Sans" d="M 44.75 63.21875 C 43.949995 63.218761 43.233745 63.345011 42.59375 63.625 C 41.953747 63.90501 41.422081 64.287926 40.96875 64.78125 C 40.528748 65.274592 40.177498 65.882508 39.9375 66.5625 C 39.697499 67.229173 39.593749 67.945423 39.59375 68.71875 C 39.593749 69.505421 39.692916 70.226254 39.90625 70.90625 C 40.119582 71.572919 40.417082 72.162918 40.84375 72.65625 C 41.283747 73.136251 41.846663 73.50125 42.5 73.78125 C 43.166662 74.047917 43.950411 74.1875 44.84375 74.1875 C 45.417077 74.1875 45.966659 74.137916 46.5 74.03125 C 47.046658 73.924583 47.452075 73.789583 47.71875 73.65625 L 47.375 71.65625 C 47.081658 71.776252 46.743742 71.888752 46.34375 71.96875 C 45.943743 72.048752 45.538326 72.093752 45.125 72.09375 C 44.018328 72.093752 43.216662 71.787502 42.75 71.1875 C 42.28333 70.57417 42.062497 69.758754 42.0625 68.71875 C 42.062497 67.638756 42.319163 66.805424 42.8125 66.21875 C 43.305829 65.618758 44.022078 65.312509 44.96875 65.3125 C 45.368743 65.312509 45.747076 65.357509 46.09375 65.4375 C 46.453742 65.517508 46.751242 65.598758 47.03125 65.71875 L 47.5625 63.75 C 46.682492 63.390011 45.73666 63.218761 44.75 63.21875 z M 52.96875 63.21875 C 51.755413 63.218761 50.800414 63.50251 50.09375 64.0625 C 49.387082 64.609176 49.031249 65.352509 49.03125 66.3125 C 49.031249 66.80584 49.103332 67.21584 49.25 67.5625 C 49.409999 67.895839 49.639582 68.197506 49.90625 68.4375 C 50.172915 68.677505 50.483748 68.875838 50.84375 69.0625 C 51.21708 69.235838 51.622496 69.402505 52.0625 69.5625 C 52.782495 69.829171 53.287078 70.085837 53.59375 70.3125 C 53.913744 70.53917 54.062494 70.809586 54.0625 71.15625 C 54.062494 71.529586 53.918327 71.808752 53.625 71.96875 C 53.331661 72.115418 52.858745 72.187502 52.21875 72.1875 C 51.578746 72.187502 51.006664 72.133335 50.5 72 C 50.006665 71.866669 49.578748 71.709169 49.21875 71.5625 L 48.8125 73.59375 C 49.039166 73.687084 49.439999 73.790833 50 73.9375 C 50.559998 74.0975 51.298747 74.1875 52.21875 74.1875 C 53.592078 74.1875 54.64166 73.944167 55.375 73.4375 C 56.121659 72.917501 56.499992 72.156252 56.5 71.15625 C 56.499992 70.689587 56.432492 70.270837 56.3125 69.9375 C 56.192492 69.604171 55.985409 69.315838 55.71875 69.0625 C 55.465409 68.795838 55.149993 68.575005 54.75 68.375 C 54.349994 68.161672 53.854578 67.932089 53.28125 67.71875 C 52.934578 67.598756 52.646245 67.481673 52.40625 67.375 C 52.166246 67.255007 51.990413 67.169173 51.84375 67.0625 C 51.69708 66.942507 51.566663 66.78959 51.5 66.65625 C 51.446663 66.522924 51.437497 66.392091 51.4375 66.21875 C 51.437497 65.872091 51.59958 65.597508 51.90625 65.4375 C 52.212913 65.264175 52.600412 65.187509 53.09375 65.1875 C 53.640411 65.187509 54.117911 65.237092 54.53125 65.34375 C 54.944576 65.437092 55.295826 65.536258 55.5625 65.65625 L 56 63.71875 C 55.719992 63.612094 55.278743 63.481677 54.71875 63.375 C 54.158744 63.255011 53.582078 63.218761 52.96875 63.21875 z M 62.125 63.21875 C 60.911663 63.218761 59.925414 63.50251 59.21875 64.0625 C 58.512082 64.609176 58.187499 65.352509 58.1875 66.3125 C 58.187499 66.80584 58.259582 67.21584 58.40625 67.5625 C 58.566249 67.895839 58.764582 68.197506 59.03125 68.4375 C 59.297915 68.677505 59.608748 68.875838 59.96875 69.0625 C 60.34208 69.235838 60.747496 69.402505 61.1875 69.5625 C 61.907495 69.829171 62.412078 70.085837 62.71875 70.3125 C 63.038744 70.53917 63.218744 70.809586 63.21875 71.15625 C 63.218744 71.529586 63.074577 71.808752 62.78125 71.96875 C 62.487911 72.115418 62.014995 72.187502 61.375 72.1875 C 60.734996 72.187502 60.162914 72.133335 59.65625 72 C 59.162915 71.866669 58.734998 71.709169 58.375 71.5625 L 57.9375 73.59375 C 58.164166 73.687084 58.564999 73.790833 59.125 73.9375 C 59.684998 74.0975 60.423747 74.1875 61.34375 74.1875 C 62.717078 74.1875 63.76666 73.944167 64.5 73.4375 C 65.246659 72.917501 65.624992 72.156252 65.625 71.15625 C 65.624992 70.689587 65.557492 70.270837 65.4375 69.9375 C 65.317492 69.604171 65.141659 69.315838 64.875 69.0625 C 64.621659 68.795838 64.306243 68.575005 63.90625 68.375 C 63.506244 68.161672 63.010828 67.932089 62.4375 67.71875 C 62.090828 67.598756 61.802495 67.481673 61.5625 67.375 C 61.322496 67.255007 61.115413 67.169173 60.96875 67.0625 C 60.82208 66.942507 60.722913 66.78959 60.65625 66.65625 C 60.602913 66.522924 60.562497 66.392091 60.5625 66.21875 C 60.562497 65.872091 60.72458 65.597508 61.03125 65.4375 C 61.337913 65.264175 61.725412 65.187509 62.21875 65.1875 C 62.765411 65.187509 63.274161 65.237092 63.6875 65.34375 C 64.100826 65.437092 64.420826 65.536258 64.6875 65.65625 L 65.125 63.71875 C 64.844992 63.612094 64.434993 63.481677 63.875 63.375 C 63.314994 63.255011 62.738328 63.218761 62.125 63.21875 z M 35.96875 71 C 35.515414 71.000003 35.119165 71.162086 34.8125 71.46875 C 34.505832 71.762086 34.374999 72.127085 34.375 72.59375 C 34.374999 73.060418 34.505832 73.456667 34.8125 73.75 C 35.119165 74.043333 35.515414 74.1875 35.96875 74.1875 C 36.408747 74.1875 36.78708 74.043333 37.09375 73.75 C 37.413746 73.456667 37.562496 73.060418 37.5625 72.59375 C 37.562496 72.127085 37.413746 71.762086 37.09375 71.46875 C 36.78708 71.162086 36.408747 71.000003 35.96875 71 z " transform="translate(0,952.36218)" id="text3835"/>
    
  </g>

	<metadata>
		<rdf:RDF xmlns:rdf="http://www.w3.org/1999/02/22-rdf-syntax-ns#" xmlns:rdfs="http://www.w3.org/2000/01/rdf-schema#" xmlns:dc="http://purl.org/dc/elements/1.1/">
			<rdf:Description about="https://iconscout.com/legal#licenses" dc:title="css_file_format" dc:description="css_file_format" dc:publisher="Iconscout" dc:date="2017-06-27" dc:format="image/svg+xml" dc:language="en">
				<dc:creator>
					<rdf:Bag>
						<rdf:li>Vignesh Oviyan</rdf:li>
					</rdf:Bag>
				</dc:creator>
			</rdf:Description>
		</rdf:RDF>
    </metadata></svg>
