<svg xmlns="http://www.w3.org/2000/svg"  viewBox="0 0 48 48" width="48px" height="48px"><radialGradient id="2eBw1UHYuNaL9Jtd7Qjuxa" cx="704" cy="24" r="18" fx="703.905" fy="16.289" gradientTransform="matrix(-1 0 0 1 728 0)" gradientUnits="userSpaceOnUse"><stop offset="0" stop-color="#ffe16e"/><stop offset=".629" stop-color="#ffd226"/><stop offset=".75" stop-color="#fdcd23"/><stop offset=".899" stop-color="#f6bd1b"/><stop offset=".999" stop-color="#f0af13"/></radialGradient><circle cx="24" cy="24" r="18" fill="url(#2eBw1UHYuNaL9Jtd7Qjuxa)"/><radialGradient id="2eBw1UHYuNaL9Jtd7Qjuxb" cx="24" cy="26.779" r="11.171" fx="23.992" fy="27.198" gradientUnits="userSpaceOnUse"><stop offset=".371" stop-color="#ffd226"/><stop offset=".948" stop-color="#ffe16e"/><stop offset="1" stop-color="#ffe16e" stop-opacity="0"/></radialGradient><path fill="url(#2eBw1UHYuNaL9Jtd7Qjuxb)" d="M35,26c0,0,0.139,12-11,12S13,26,13,26s2.444,0,11,0S35,26,35,26z"/><radialGradient id="2eBw1UHYuNaL9Jtd7Qjuxc" cx="24.15" cy="25.589" r="11.863" gradientUnits="userSpaceOnUse"><stop offset="0" stop-color="#1c1911"/><stop offset=".999" stop-color="#171714"/></radialGradient><path fill="url(#2eBw1UHYuNaL9Jtd7Qjuxc)" d="M35,26c0,6.075-4.925,11-11,11s-11-4.925-11-11H35z"/><radialGradient id="2eBw1UHYuNaL9Jtd7Qjuxd" cx="24" cy="38.731" r="5.91" gradientTransform="matrix(0 1 -.9954 0 62.553 14.731)" gradientUnits="userSpaceOnUse"><stop offset=".456" stop-color="#db4a59"/><stop offset=".602" stop-color="#d84756"/><stop offset=".729" stop-color="#cd3e4d"/><stop offset=".85" stop-color="#bb303e"/><stop offset=".965" stop-color="#a21b29"/><stop offset=".999" stop-color="#991421"/></radialGradient><path fill="url(#2eBw1UHYuNaL9Jtd7Qjuxd)" d="M25,33c-0.516,0-1,0.5-1,0.5S23.516,33,23,33c-2.081,0-3.426,1.959-3.426,1.959	C20.91,35.622,22.411,36,24,36s3.09-0.378,4.426-1.041C28.426,34.959,27.081,33,25,33z"/><radialGradient id="2eBw1UHYuNaL9Jtd7Qjuxe" cx="24.101" cy="29.227" r="10.381" gradientUnits="userSpaceOnUse"><stop offset=".819" stop-color="#cc9000"/><stop offset=".988" stop-color="#fbbc23" stop-opacity=".069"/><stop offset="1" stop-color="#ffbf26" stop-opacity="0"/></radialGradient><path fill="url(#2eBw1UHYuNaL9Jtd7Qjuxe)" d="M24,38c-3.484,0-6.64-1.378-8.974-3.609C16.653,37.709,20.055,40,24,40	s7.347-2.291,8.974-5.609C30.64,36.622,27.484,38,24,38z"/><path fill="#212121" d="M28,22c3.342,0,6.398,0.995,6.398,0.995l0.383-0.908C34.356,21.75,31.075,20,28,20V22z"/><circle cx="34.5" cy="22.5" r=".5" fill="#212121"/><circle cx="28" cy="21" r="1" fill="#212121"/><path fill="#212121" d="M20,22c-3.342,0-6.398,0.995-6.398,0.995l-0.383-0.908C13.644,21.75,16.925,20,20,20V22z"/><circle cx="13.5" cy="22.5" r=".5" fill="#212121"/><circle cx="20" cy="21" r="1" fill="#212121"/><linearGradient id="2eBw1UHYuNaL9Jtd7Qjuxf" x1="15" x2="33" y1="28.5" y2="28.5" gradientUnits="userSpaceOnUse"><stop offset=".001" stop-color="#968f72"/><stop offset=".048" stop-color="#b2ad97"/><stop offset=".098" stop-color="#cac6b7"/><stop offset=".153" stop-color="#dddbd2"/><stop offset=".213" stop-color="#ecebe6"/><stop offset=".281" stop-color="#f7f6f4"/><stop offset=".363" stop-color="#fdfdfc"/><stop offset=".5" stop-color="#fff"/><stop offset=".637" stop-color="#fdfdfc"/><stop offset=".719" stop-color="#f7f6f4"/><stop offset=".787" stop-color="#ecebe6"/><stop offset=".847" stop-color="#dddbd2"/><stop offset=".902" stop-color="#cac6b7"/><stop offset=".952" stop-color="#b2ad97"/><stop offset="1" stop-color="#968f72"/></linearGradient><path fill="url(#2eBw1UHYuNaL9Jtd7Qjuxf)" d="M15,27v1c0,1.105,0.895,2,2,2h14c1.105,0,2-0.895,2-2v-1H15z"/></svg>