<svg xmlns="http://www.w3.org/2000/svg" data-name="Layer 1" viewBox="0 0 512 512"><rect width="427.48" height="232" x="42.26" y="66.5" fill="#e4eef9"/><rect width="497" height="25" x="7.5" y="7.5" fill="#a6d28e" rx="3"/><path fill="#91c771" d="M501.5,7.5h-30a3,3,0,0,1,3,3v19a3,3,0,0,1-3,3h30a3,3,0,0,0,3-3v-19A3,3,0,0,0,501.5,7.5Z"/><rect width="462.04" height="34" x="24.98" y="32.5" fill="#91c771" rx="3"/><path fill="#77be51" d="M484,32.5H454a3,3,0,0,1,3,3v28a3,3,0,0,1-3,3h30a3,3,0,0,0,3-3v-28A3,3,0,0,0,484,32.5Z"/><rect width="42" height="76.39" x="320.95" y="102" fill="#52bbe9" rx="3.09"/><path fill="#d5e0f2" d="M439.74,66.5H42.26v20H420.32a19.42,19.42,0,0,1,19.42,19.43V298.5h30V66.5Z"/><path fill="#1cabe1" d="M359.86,102h-20a3.09,3.09,0,0,1,3.09,3.09V175.3a3.09,3.09,0,0,1-3.09,3.09h20A3.09,3.09,0,0,0,363,175.3V105.09A3.09,3.09,0,0,0,359.86,102Z"/><rect width="42" height="76.39" x="150.95" y="102" fill="#52bbe9" rx="3.09"/><path fill="#1cabe1" d="M189.86,102h-20a3.09,3.09,0,0,1,3.09,3.09V175.3a3.09,3.09,0,0,1-3.09,3.09h20A3.09,3.09,0,0,0,193,175.3V105.09A3.09,3.09,0,0,0,189.86,102Z"/><rect width="42" height="76.39" x="79.95" y="102" fill="#52bbe9" rx="3.09"/><path fill="#1cabe1" d="M118.86,102h-20a3.09,3.09,0,0,1,3.09,3.09V175.3a3.09,3.09,0,0,1-3.09,3.09h20A3.09,3.09,0,0,0,122,175.3V105.09A3.09,3.09,0,0,0,118.86,102Z"/><rect width="42" height="76.39" x="391.95" y="102" fill="#52bbe9" rx="3.09"/><path fill="#1cabe1" d="M430.86,102h-20a3.09,3.09,0,0,1,3.09,3.09V175.3a3.09,3.09,0,0,1-3.09,3.09h20A3.09,3.09,0,0,0,434,175.3V105.09A3.09,3.09,0,0,0,430.86,102Z"/><rect width="427.49" height="206" x="42.26" y="298.5" fill="#e4eef9"/><rect width="30" height="206" x="439.74" y="298.5" fill="#d5e0f2"/><path fill="#787681" d="M432.05,174l-14.29,86a3,3,0,0,1-3,2.51H357.88a3,3,0,0,1-3-2.51l-14.29-86H301.71l-14.29,86a3,3,0,0,1-3,2.51H227.54a3,3,0,0,1-3-2.51l-14.29-86H171.37l-14.29,86a3,3,0,0,1-3,2.51H97.2a3,3,0,0,1-3-2.51L80,174H42.26V298.5H469.74V174Z"/><rect width="30" height="124.5" x="439.74" y="174" fill="#57565c"/><path fill="#f9b15e" d="M202.11,327.45H309.89a3,3,0,0,1,3,3V504.5a0,0,0,0,1,0,0H199.11a0,0,0,0,1,0,0V330.45A3,3,0,0,1,202.11,327.45Z"/><path fill="#f9a242" d="M309.89,327.45h-30a3,3,0,0,1,3,3V504.5h30v-174A3,3,0,0,0,309.89,327.45Z"/><rect width="61" height="29" x="225.5" y="354.5" fill="#52bbe9" rx="3"/><path fill="#1cabe1" d="M283.5,354.5h-30a3,3,0,0,1,3,3v23a3,3,0,0,1-3,3h30a3,3,0,0,0,3-3v-23A3,3,0,0,0,283.5,354.5Z"/><rect width="92.53" height="92.53" x="346.73" y="327.45" fill="#52bbe9" rx="3"/><path fill="#1cabe1" d="M436.27,327.45h-30a3,3,0,0,1,3,3V417a3,3,0,0,1-3,3h30a3,3,0,0,0,3-3V330.45A3,3,0,0,0,436.27,327.45Z"/><rect width="92.53" height="92.53" x="73.73" y="327.45" fill="#52bbe9" rx="3"/><path fill="#1cabe1" d="M163.27,327.45h-30a3,3,0,0,1,3,3V417a3,3,0,0,1-3,3h30a3,3,0,0,0,3-3V330.45A3,3,0,0,0,163.27,327.45Z"/><path fill="#787681" d="M504.5,512H7.5a7.5,7.5,0,0,1,0-15h497a7.5,7.5,0,0,1,0,15Z"/><path fill="#18171c" d="M487,74a7.5,7.5,0,0,0,7.5-7.5V40h10a7.5,7.5,0,0,0,7.5-7.5V7.5A7.5,7.5,0,0,0,504.5,0H7.5A7.5,7.5,0,0,0,0,7.5v25A7.5,7.5,0,0,0,7.5,40h10V66.5A7.5,7.5,0,0,0,25,74h9.78V497H7.5a7.5,7.5,0,0,0,0,15h497a7.5,7.5,0,0,0,0-15H477.24V74ZM15,25V15H497V25ZM305.39,497H206.61V335h98.78Zm156.85,0H320.39V327.45a7.49,7.49,0,0,0-7.5-7.5H199.11a7.49,7.49,0,0,0-7.5,7.5V497H49.76V306H462.24Zm0-206H49.76V181.5H73.59l13.67,82.23a7.5,7.5,0,0,0,7.4,6.27h62a7.5,7.5,0,0,0,7.4-6.27l13.67-82.23h26.2l13.67,82.23A7.5,7.5,0,0,0,225,270h62a7.5,7.5,0,0,0,7.4-6.27l13.67-82.23h26.2l13.67,82.23a7.5,7.5,0,0,0,7.4,6.27h62a7.5,7.5,0,0,0,7.4-6.27l13.67-82.23h23.83ZM162.52,181.5l-2.32,14H91.12l-2.32-14Zm-4.07-15v-57h27v57Zm-62.17,60-2.66-16H157.7l-2.66,16Zm56.27,15L150.3,255H101l-2.25-13.5Zm-38.1-75h-27v-57h27Zm112.17,60-2.66-16H288l-2.66,16Zm56.27,15L280.64,255H231.36l-2.25-13.5Zm-61.43-46-2.32-14h73.72l-2.32,14Zm201.74-14-2.32,14H351.8l-2.32-14Zm-23.75-15v-57h27v57ZM357,226.5l-2.66-16h64.08l-2.66,16Zm56.27,15L411,255H361.7l-2.25-13.5Zm-57.78-75h-27v-57h27Zm106.79,0H441.45V102a7.5,7.5,0,0,0-7.5-7.5H392a7.5,7.5,0,0,0-7.5,7.5v64.5h-14V102a7.5,7.5,0,0,0-7.5-7.5H321a7.5,7.5,0,0,0-7.5,7.5v64.5h-113V102a7.5,7.5,0,0,0-7.5-7.5H151a7.5,7.5,0,0,0-7.5,7.5v64.5h-14V102a7.5,7.5,0,0,0-7.5-7.5H80a7.5,7.5,0,0,0-7.5,7.5v64.5H49.76V74H462.24ZM32.48,59V40h447V59ZM73.73,427.48h92.54a7.5,7.5,0,0,0,7.5-7.5V327.45a7.5,7.5,0,0,0-7.5-7.5H73.73a7.5,7.5,0,0,0-7.5,7.5V420A7.5,7.5,0,0,0,73.73,427.48ZM81.23,335h77.54v77.53H81.23ZM225.5,391h61a7.5,7.5,0,0,0,7.5-7.5v-29a7.5,7.5,0,0,0-7.5-7.5h-61a7.5,7.5,0,0,0-7.5,7.5v29A7.5,7.5,0,0,0,225.5,391Zm7.5-29h46v14H233Zm113.73,65.48h92.54a7.5,7.5,0,0,0,7.5-7.5V327.45a7.5,7.5,0,0,0-7.5-7.5H346.73a7.5,7.5,0,0,0-7.5,7.5V420A7.5,7.5,0,0,0,346.73,427.48Zm7.5-92.53h77.54v77.53H354.23Z"/></svg>