<?xml version="1.0" encoding="UTF-8" standalone="no"?>
<svg xmlns:dc="http://purl.org/dc/elements/1.1/" xmlns:cc="http://creativecommons.org/ns#" xmlns:rdf="http://www.w3.org/1999/02/22-rdf-syntax-ns#" xmlns:svg="http://www.w3.org/2000/svg" xmlns="http://www.w3.org/2000/svg" xmlns:sodipodi="http://sodipodi.sourceforge.net/DTD/sodipodi-0.dtd" xmlns:inkscape="http://www.inkscape.org/namespaces/inkscape" width="100" height="100" id="svg2" version="1.1" inkscape:version="0.48.5 r" sodipodi:docname="html_file_format.svg">
  <defs id="defs4">
    <clipPath clipPathUnits="userSpaceOnUse" id="clipPath3789">
      <path transform="matrix(0.18360657,0,0,0.18260869,190.37192,664.37679)" d="m 674.28571,549.50507 a 261.42856,262.85715 0 1 1 -522.85712,0 261.42856,262.85715 0 1 1 522.85712,0 z" sodipodi:ry="262.85715" sodipodi:rx="261.42856" sodipodi:cy="549.50507" sodipodi:cx="412.85715" id="path3791" style="fill:#f29f4a;fill-opacity:1;stroke:none" sodipodi:type="arc"/>
    </clipPath>
  </defs>
  <sodipodi:namedview id="base" pagecolor="#ffffff" bordercolor="#666666" borderopacity="1.0" inkscape:pageopacity="0.0" inkscape:pageshadow="2" inkscape:zoom="2.8" inkscape:cx="-0.14600188" inkscape:cy="35.614937" inkscape:document-units="px" inkscape:current-layer="layer1" showgrid="false" inkscape:window-width="1366" inkscape:window-height="713" inkscape:window-x="0" inkscape:window-y="26" inkscape:window-maximized="1"/>
  
  <g inkscape:label="Layer 1" inkscape:groupmode="layer" id="layer1" transform="translate(0,-952.36218)">
    
    <path inkscape:connector-curvature="0" style="fill:#9777a8;fill-opacity:1;stroke:none" d="m 49.999998,954.36216 c -26.50966,0 -48,21.49034 -48,48.00004 0,26.5096 21.49034,48 48,48 26.509672,0 48.000004,-21.4904 48.000004,-48 L 49.999998,954.36216 z" id="path2985-7"/>
    <path inkscape:connector-curvature="0" style="opacity:0.4;fill:#f8f6de;fill-opacity:1;stroke:none" d="m 49.999998,954.36216 0,48.00004 48.000004,0 -48.000004,-48.00004 z" id="rect3038"/>
    <path style="font-size:25px;font-style:normal;font-variant:normal;font-weight:500;font-stretch:normal;line-height:125%;letter-spacing:0px;word-spacing:0px;fill:#f8f6de;fill-opacity:1;stroke:none;font-family:Ubuntu;-inkscape-font-specification:Ubuntu Medium" d="M 87.5625 53.15625 L 84.53125 53.65625 L 84.53125 68.71875 C 84.531248 69.368753 84.585415 69.952086 84.71875 70.46875 C 84.868748 70.968752 85.118748 71.400001 85.46875 71.75 C 85.818747 72.083334 86.291663 72.316667 86.875 72.5 C 87.474995 72.683333 88.224994 72.795833 89.125 72.8125 L 89.5625 70.3125 C 89.162493 70.262502 88.829161 70.208336 88.5625 70.125 C 88.312494 70.025003 88.087495 69.885419 87.9375 69.71875 C 87.787495 69.53542 87.691662 69.312503 87.625 69.0625 C 87.574995 68.812504 87.562495 68.491671 87.5625 68.125 L 87.5625 53.15625 z M 34.6875 55.25 L 34.6875 72.5625 L 37.84375 72.5625 L 37.84375 64.875 L 45.34375 64.875 L 45.34375 72.5625 L 48.5 72.5625 L 48.5 55.25 L 45.34375 55.25 L 45.34375 62.15625 L 37.84375 62.15625 L 37.84375 55.25 L 34.6875 55.25 z M 55.375 55.53125 L 52.34375 56.03125 L 52.34375 67.375 C 52.343748 68.241671 52.412498 69.00417 52.5625 69.6875 C 52.712498 70.354169 52.977081 70.922918 53.34375 71.40625 C 53.710414 71.872917 54.19583 72.25 54.8125 72.5 C 55.445828 72.75 56.254161 72.875 57.1875 72.875 C 57.954159 72.875 58.620825 72.791666 59.1875 72.625 C 59.754157 72.475 60.21249 72.30625 60.5625 72.15625 L 60.0625 69.75 C 59.812491 69.850003 59.464574 69.977086 59.03125 70.09375 C 58.614575 70.210419 58.112492 70.250002 57.5625 70.25 C 56.762494 70.250002 56.208328 70.043753 55.875 69.59375 C 55.541662 69.143753 55.374995 68.393754 55.375 67.34375 L 55.375 62 L 60.03125 62 L 60.03125 59.5 L 55.375 59.5 L 55.375 55.53125 z M 68.21875 59.21875 C 67.168744 59.218763 66.168745 59.287513 65.21875 59.4375 C 64.285413 59.587513 63.520831 59.739596 62.9375 59.90625 L 62.9375 72.5625 L 65.96875 72.5625 L 65.96875 62 C 66.168745 61.966677 66.474995 61.925011 66.875 61.875 C 67.274994 61.825011 67.63541 61.812511 67.96875 61.8125 C 68.902075 61.812511 69.541658 62.133344 69.875 62.75 C 70.224991 63.350009 70.406241 64.320842 70.40625 65.6875 L 70.40625 72.5625 L 73.40625 72.5625 L 73.40625 65.34375 C 73.406238 64.810424 73.393738 64.310425 73.34375 63.84375 C 73.293738 63.377093 73.195821 62.916676 73.0625 62.5 C 73.279154 62.35001 73.597904 62.21251 74.03125 62.0625 C 74.46457 61.895844 74.922903 61.812511 75.40625 61.8125 C 76.356235 61.812511 77.010401 62.133344 77.34375 62.75 C 77.677067 63.350009 77.843733 64.320842 77.84375 65.6875 L 77.84375 72.5625 L 80.875 72.5625 L 80.875 65.21875 C 80.87498 64.335425 80.80623 63.514592 80.65625 62.78125 C 80.522897 62.031261 80.258314 61.391678 79.875 60.875 C 79.508315 60.341679 78.979149 59.939596 78.3125 59.65625 C 77.662483 59.356263 76.829151 59.218763 75.8125 59.21875 C 75.412486 59.218763 75.024986 59.26043 74.625 59.34375 C 74.241653 59.427096 73.881237 59.52293 73.53125 59.65625 C 73.181238 59.772929 72.845821 59.912513 72.5625 60.0625 C 72.279155 60.212512 72.058322 60.366679 71.875 60.5 C 71.491656 60.116679 70.989573 59.795846 70.40625 59.5625 C 69.839575 59.32918 69.118742 59.218763 68.21875 59.21875 z " transform="translate(0,952.36218)" id="text3812"/>
  </g>

	<metadata>
		<rdf:RDF xmlns:rdf="http://www.w3.org/1999/02/22-rdf-syntax-ns#" xmlns:rdfs="http://www.w3.org/2000/01/rdf-schema#" xmlns:dc="http://purl.org/dc/elements/1.1/">
			<rdf:Description about="https://iconscout.com/legal#licenses" dc:title="html_file_format" dc:description="html_file_format" dc:publisher="Iconscout" dc:date="2017-06-27" dc:format="image/svg+xml" dc:language="en">
				<dc:creator>
					<rdf:Bag>
						<rdf:li>Vignesh Oviyan</rdf:li>
					</rdf:Bag>
				</dc:creator>
			</rdf:Description>
		</rdf:RDF>
    </metadata></svg>
