<?xml version="1.0" encoding="UTF-8" standalone="no"?>
<svg xmlns:dc="http://purl.org/dc/elements/1.1/" xmlns:cc="http://creativecommons.org/ns#" xmlns:rdf="http://www.w3.org/1999/02/22-rdf-syntax-ns#" xmlns:svg="http://www.w3.org/2000/svg" xmlns="http://www.w3.org/2000/svg" xmlns:sodipodi="http://sodipodi.sourceforge.net/DTD/sodipodi-0.dtd" xmlns:inkscape="http://www.inkscape.org/namespaces/inkscape" width="100" height="100" id="svg2" version="1.1" inkscape:version="0.48.4 r9939" sodipodi:docname="javascript_js_file_format-scripting_language.svg">
  <defs id="defs4">
    <clipPath clipPathUnits="userSpaceOnUse" id="clipPath3789">
      <path transform="matrix(0.18360657,0,0,0.18260869,190.37192,664.37679)" d="m 674.28571,549.50507 a 261.42856,262.85715 0 1 1 -522.85712,0 261.42856,262.85715 0 1 1 522.85712,0 z" sodipodi:ry="262.85715" sodipodi:rx="261.42856" sodipodi:cy="549.50507" sodipodi:cx="412.85715" id="path3791" style="fill:#f29f4a;fill-opacity:1;stroke:none" sodipodi:type="arc"/>
    </clipPath>
  </defs>
  <sodipodi:namedview id="base" pagecolor="#ffffff" bordercolor="#666666" borderopacity="1.0" inkscape:pageopacity="0.0" inkscape:pageshadow="2" inkscape:zoom="2.8" inkscape:cx="-118.04636" inkscape:cy="39.364937" inkscape:document-units="px" inkscape:current-layer="layer1" showgrid="false" inkscape:window-width="1366" inkscape:window-height="705" inkscape:window-x="0" inkscape:window-y="26" inkscape:window-maximized="1"/>
  
  <g inkscape:label="Layer 1" inkscape:groupmode="layer" id="layer1" transform="translate(0,-952.36218)">
    <path sodipodi:type="arc" style="fill:#8c5f96;fill-opacity:1;stroke:none" id="path2985" sodipodi:cx="412.85715" sodipodi:cy="549.50507" sodipodi:rx="261.42856" sodipodi:ry="262.85715" d="m 674.28571,549.50507 c 0,145.17199 -117.04556,262.85714 -261.42856,262.85714 -144.38301,0 -261.42856,-117.68515 -261.42856,-262.85714 0,-145.172 117.04555,-262.85715 261.42856,-262.85715 144.383,0 261.42856,117.68515 261.42856,262.85715 z" transform="matrix(0.18360657,0,0,0.18260869,-25.80328,902.01778)"/>
    <rect style="opacity:0.4;fill:#f8f6de;fill-opacity:1;stroke:none" id="rect2987" width="58.714287" height="56.214287" x="266.1752" y="708.5069" ry="6.0202026" clip-path="url(#clipPath3789)" transform="translate(-216.1752,237.64099)"/>
    <path style="font-size:25px;font-style:normal;font-weight:normal;line-height:125%;letter-spacing:0px;word-spacing:0px;fill:#f8f6de;fill-opacity:1;stroke:none;font-family:Sans" d="M 47.90625 58.90625 C 47.492914 58.906265 47.137081 59.045848 46.84375 59.3125 C 46.550415 59.579181 46.406249 59.939597 46.40625 60.40625 C 46.406249 60.859596 46.550415 61.233346 46.84375 61.5 C 47.137081 61.766679 47.492914 61.875012 47.90625 61.875 C 48.306247 61.875012 48.644163 61.766679 48.9375 61.5 C 49.230829 61.233346 49.374996 60.859596 49.375 60.40625 C 49.374996 59.939597 49.230829 59.579181 48.9375 59.3125 C 48.644163 59.045848 48.306247 58.906265 47.90625 58.90625 z M 55.5625 63.21875 C 54.349163 63.218761 53.394164 63.50251 52.6875 64.0625 C 51.980832 64.609176 51.624999 65.352509 51.625 66.3125 C 51.624999 66.80584 51.697082 67.21584 51.84375 67.5625 C 52.003749 67.895839 52.233332 68.197506 52.5 68.4375 C 52.766665 68.677505 53.077498 68.875838 53.4375 69.0625 C 53.81083 69.235838 54.216246 69.402505 54.65625 69.5625 C 55.376245 69.829171 55.880828 70.085837 56.1875 70.3125 C 56.507494 70.53917 56.656244 70.809586 56.65625 71.15625 C 56.656244 71.529586 56.512077 71.808752 56.21875 71.96875 C 55.925411 72.115418 55.483745 72.187502 54.84375 72.1875 C 54.203746 72.187502 53.631664 72.133335 53.125 72 C 52.631665 71.866669 52.203748 71.709169 51.84375 71.5625 L 51.40625 73.59375 C 51.632916 73.687084 52.033749 73.790833 52.59375 73.9375 C 53.153748 74.0975 53.892497 74.1875 54.8125 74.1875 C 56.185828 74.1875 57.23541 73.944167 57.96875 73.4375 C 58.715409 72.917501 59.093742 72.156252 59.09375 71.15625 C 59.093742 70.689587 59.026242 70.270837 58.90625 69.9375 C 58.786242 69.604171 58.610409 69.315838 58.34375 69.0625 C 58.090409 68.795838 57.743743 68.575005 57.34375 68.375 C 56.943744 68.161672 56.448328 67.932089 55.875 67.71875 C 55.528328 67.598756 55.239995 67.481673 55 67.375 C 54.759996 67.255007 54.584163 67.169173 54.4375 67.0625 C 54.29083 66.942507 54.191663 66.78959 54.125 66.65625 C 54.071663 66.522924 54.031247 66.392091 54.03125 66.21875 C 54.031247 65.872091 54.19333 65.597508 54.5 65.4375 C 54.806663 65.264175 55.194162 65.187509 55.6875 65.1875 C 56.234161 65.187509 56.711661 65.237092 57.125 65.34375 C 57.538326 65.437092 57.889576 65.536258 58.15625 65.65625 L 58.59375 63.71875 C 58.313742 63.612094 57.903743 63.481677 57.34375 63.375 C 56.783744 63.255011 56.175828 63.218761 55.5625 63.21875 z M 46.6875 63.46875 L 46.6875 73.59375 C 46.687498 74.247083 46.601665 74.742499 46.375 75.0625 C 46.148332 75.395832 45.747499 75.562498 45.1875 75.5625 C 44.774167 75.562498 44.418334 75.530832 44.125 75.4375 L 43.8125 77.40625 C 44.052501 77.49958 44.336251 77.56708 44.65625 77.59375 C 44.962917 77.633746 45.201667 77.656246 45.375 77.65625 C 46.588332 77.656246 47.516248 77.30958 48.15625 76.65625 C 48.80958 76.002915 49.124996 75.016249 49.125 73.65625 L 49.125 63.46875 L 46.6875 63.46875 z M 42.5 71 C 42.046664 71.000003 41.681665 71.162086 41.375 71.46875 C 41.068332 71.762086 40.906249 72.127085 40.90625 72.59375 C 40.906249 73.060418 41.068332 73.456667 41.375 73.75 C 41.681665 74.043333 42.046664 74.1875 42.5 74.1875 C 42.939997 74.1875 43.31833 74.043333 43.625 73.75 C 43.944996 73.456667 44.124996 73.060418 44.125 72.59375 C 44.124996 72.127085 43.944996 71.762086 43.625 71.46875 C 43.31833 71.162086 42.939997 71.000003 42.5 71 z " transform="translate(0,952.36218)" id="text3835"/>
  </g>

	<metadata>
		<rdf:RDF xmlns:rdf="http://www.w3.org/1999/02/22-rdf-syntax-ns#" xmlns:rdfs="http://www.w3.org/2000/01/rdf-schema#" xmlns:dc="http://purl.org/dc/elements/1.1/">
			<rdf:Description about="https://iconscout.com/legal#licenses" dc:title="javascript_js_file_format-scripting_language" dc:description="javascript_js_file_format-scripting_language" dc:publisher="Iconscout" dc:date="2017-06-27" dc:format="image/svg+xml" dc:language="en">
				<dc:creator>
					<rdf:Bag>
						<rdf:li>Vignesh Oviyan</rdf:li>
					</rdf:Bag>
				</dc:creator>
			</rdf:Description>
		</rdf:RDF>
    </metadata></svg>
