<?xml version="1.0" encoding="UTF-8" standalone="no"?>
<svg xmlns:dc="http://purl.org/dc/elements/1.1/" xmlns:cc="http://creativecommons.org/ns#" xmlns:rdf="http://www.w3.org/1999/02/22-rdf-syntax-ns#" xmlns:svg="http://www.w3.org/2000/svg" xmlns="http://www.w3.org/2000/svg" xmlns:sodipodi="http://sodipodi.sourceforge.net/DTD/sodipodi-0.dtd" xmlns:inkscape="http://www.inkscape.org/namespaces/inkscape" width="100" height="100" id="svg2" version="1.1" inkscape:version="0.48.5 r" sodipodi:docname="php_file_format-scripting_language.svg">
  <defs id="defs4">
    <clipPath clipPathUnits="userSpaceOnUse" id="clipPath3789">
      <path transform="matrix(0.18360657,0,0,0.18260869,190.37192,664.37679)" d="m 674.28571,549.50507 a 261.42856,262.85715 0 1 1 -522.85712,0 261.42856,262.85715 0 1 1 522.85712,0 z" sodipodi:ry="262.85715" sodipodi:rx="261.42856" sodipodi:cy="549.50507" sodipodi:cx="412.85715" id="path3791" style="fill:#f29f4a;fill-opacity:1;stroke:none" sodipodi:type="arc"/>
    </clipPath>
  </defs>
  <sodipodi:namedview id="base" pagecolor="#ffffff" bordercolor="#666666" borderopacity="1.0" inkscape:pageopacity="0.0" inkscape:pageshadow="2" inkscape:zoom="2.8" inkscape:cx="7.2675201" inkscape:cy="35.614937" inkscape:document-units="px" inkscape:current-layer="layer1" showgrid="false" inkscape:window-width="1366" inkscape:window-height="713" inkscape:window-x="0" inkscape:window-y="26" inkscape:window-maximized="1"/>
  
  <g inkscape:label="Layer 1" inkscape:groupmode="layer" id="layer1" transform="translate(0,-952.36218)">
    <path id="path2985-5" d="M 50.000003,954.36217 C 23.49033,954.36217 2,975.8525 2,1002.3622 c 0,26.5096 21.49033,48 48.000003,48 26.509668,0 48,-21.4904 48,-48 l -48,-48.00003 z" style="fill:#e74c3c;fill-opacity:1;stroke:none" inkscape:connector-curvature="0"/>
    <path id="rect3038" d="m 50.000003,954.36217 0,48.00003 48,0 -48,-48.00003 z" style="opacity:0.4;fill:#f8f6de;fill-opacity:1;stroke:none" inkscape:connector-curvature="0"/>
    <path style="font-size:25px;font-style:normal;font-variant:normal;font-weight:500;font-stretch:normal;line-height:125%;letter-spacing:0px;word-spacing:0px;fill:#f8f6de;fill-opacity:1;stroke:none;font-family:Ubuntu;-inkscape-font-specification:Ubuntu Medium" d="M 68.4375 53.875 L 65.4375 54.375 L 65.4375 73.28125 L 68.4375 73.28125 L 68.4375 62.875 C 68.637495 62.808344 68.958328 62.739594 69.375 62.65625 C 69.79166 62.572927 70.193743 62.531261 70.59375 62.53125 C 71.110409 62.531261 71.556242 62.600011 71.90625 62.75 C 72.256241 62.883344 72.518741 63.120843 72.71875 63.4375 C 72.935407 63.73751 73.104157 64.125009 73.1875 64.625 C 73.28749 65.108341 73.31249 65.706258 73.3125 66.40625 L 73.3125 73.28125 L 76.34375 73.28125 L 76.34375 65.9375 C 76.343737 65.037508 76.245821 64.202092 76.0625 63.46875 C 75.895821 62.735427 75.604155 62.110428 75.1875 61.59375 C 74.770822 61.060429 74.231239 60.658346 73.53125 60.375 C 72.847907 60.075013 71.987492 59.937513 70.9375 59.9375 C 70.50416 59.937513 70.043743 59.97918 69.59375 60.0625 C 69.160411 60.145846 68.770828 60.227096 68.4375 60.34375 L 68.4375 53.875 z M 54.90625 55.78125 C 54.156244 55.781268 53.337495 55.808351 52.4375 55.875 C 51.554163 55.925017 50.733331 56.020851 50 56.1875 L 50 73.28125 L 53.15625 73.28125 L 53.15625 67.1875 L 54.71875 67.1875 C 55.985409 67.187506 57.110407 67.060423 58.09375 66.84375 C 59.077072 66.62709 59.910405 66.293757 60.59375 65.84375 C 61.27707 65.377091 61.806236 64.779175 62.15625 64.0625 C 62.522902 63.329177 62.687485 62.454177 62.6875 61.4375 C 62.687485 59.487514 62.037486 58.072932 60.6875 57.15625 C 59.354155 56.2396 57.422907 55.781268 54.90625 55.78125 z M 55.125 58.5 C 55.724992 58.500015 56.295825 58.556265 56.8125 58.65625 C 57.345824 58.739598 57.804157 58.877098 58.1875 59.09375 C 58.570823 59.310431 58.845822 59.61668 59.0625 60 C 59.279155 60.383346 59.406239 60.870846 59.40625 61.4375 C 59.406239 62.620844 59.004156 63.410427 58.1875 63.84375 C 57.370824 64.260426 56.204158 64.468759 54.6875 64.46875 L 53.15625 64.46875 L 53.15625 58.5625 C 53.672911 58.512515 54.324994 58.500015 55.125 58.5 z M 85.09375 59.9375 C 84.093744 59.937513 83.149995 60.006263 82.25 60.15625 C 81.349997 60.306263 80.585414 60.458346 79.96875 60.625 L 79.96875 77.90625 L 83 77.90625 L 83 72.8125 C 83.333328 72.995834 83.764578 73.1625 84.28125 73.3125 C 84.79791 73.4625 85.352076 73.5625 85.96875 73.5625 C 86.885408 73.5625 87.720824 73.395833 88.4375 73.0625 C 89.170822 72.729167 89.766655 72.256251 90.25 71.65625 C 90.733321 71.056252 91.093737 70.333336 91.34375 69.5 C 91.610403 68.666671 91.749986 67.750006 91.75 66.75 C 91.749986 65.700008 91.597903 64.770842 91.28125 63.9375 C 90.981237 63.08751 90.520821 62.364594 89.9375 61.78125 C 89.370822 61.181262 88.691656 60.722929 87.875 60.40625 C 87.058324 60.089597 86.127075 59.937513 85.09375 59.9375 z M 84.8125 62.53125 C 86.162492 62.531261 87.118741 62.90626 87.71875 63.65625 C 88.335406 64.406259 88.656239 65.462508 88.65625 66.8125 C 88.656239 68.079172 88.391656 69.062504 87.875 69.8125 C 87.374991 70.562503 86.568741 70.937502 85.46875 70.9375 C 84.968743 70.937502 84.512494 70.868752 84.0625 70.71875 C 83.629161 70.552086 83.266661 70.370836 83 70.1875 L 83 62.71875 C 83.299995 62.635427 83.606244 62.579177 83.90625 62.5625 C 84.222911 62.529177 84.52916 62.531261 84.8125 62.53125 z " transform="translate(0,952.36218)" id="text3812"/>
  </g>

	<metadata>
		<rdf:RDF xmlns:rdf="http://www.w3.org/1999/02/22-rdf-syntax-ns#" xmlns:rdfs="http://www.w3.org/2000/01/rdf-schema#" xmlns:dc="http://purl.org/dc/elements/1.1/">
			<rdf:Description about="https://iconscout.com/legal#licenses" dc:title="php_file_format-scripting_language" dc:description="php_file_format-scripting_language" dc:publisher="Iconscout" dc:date="2017-06-27" dc:format="image/svg+xml" dc:language="en">
				<dc:creator>
					<rdf:Bag>
						<rdf:li>Vignesh Oviyan</rdf:li>
					</rdf:Bag>
				</dc:creator>
			</rdf:Description>
		</rdf:RDF>
    </metadata></svg>
