<svg xmlns="http://www.w3.org/2000/svg"  viewBox="0 0 48 48" width="48px" height="48px"><path fill="#0097a7" d="M28.795,3.029c-0.395-0.08-0.791-0.003-1.122,0.217c-0.336,0.222-0.564,0.563-0.644,0.959 l-0.271,1.358C24.99,3.34,22.261,2,19.38,2C14.208,2,10,6.136,10,11.22c0,3.904,2.516,7.4,6.262,8.699 C16.42,19.973,16.585,20,16.751,20c0.639,0,1.208-0.405,1.418-1.009c0.271-0.781-0.146-1.637-0.927-1.909 C14.705,16.203,13,13.847,13,11.22C13,7.79,15.862,5,19.38,5c1.952,0,3.769,0.875,4.968,2.34l-1.55-0.31 c-0.392-0.082-0.791-0.004-1.126,0.218c-0.336,0.223-0.564,0.563-0.643,0.958c-0.162,0.811,0.365,1.603,1.177,1.765l4.997,1 c0.764,0.159,1.608-0.376,1.768-1.176l1-5C30.133,3.983,29.605,3.192,28.795,3.029z"/><path fill="#006064" d="M45.061,41.439l-4-4c-0.584-0.585-1.537-0.585-2.121,0c-0.585,0.585-0.585,1.536,0,2.121L40.379,41 h-7.082C36.756,38.348,39,34.186,39,29.5C39,21.505,32.495,15,24.5,15S10,21.505,10,29.5c0,2.039,0.43,4.021,1.24,5.852 l-2.492-0.409c-0.4-0.069-0.796,0.022-1.123,0.255c-0.324,0.23-0.539,0.573-0.604,0.963c-0.065,0.388,0.024,0.779,0.255,1.101 c0.232,0.327,0.581,0.543,0.979,0.608l5.995,0.983c0.084,0.015,0.168,0.021,0.251,0.021c0.735,0,1.357-0.521,1.479-1.239l1-5.905 c0.065-0.388-0.024-0.779-0.255-1.101c-0.233-0.327-0.581-0.543-0.974-0.607c-0.396-0.068-0.793,0.02-1.121,0.251 c-0.327,0.231-0.544,0.575-0.609,0.967l-0.402,2.37c-0.493-1.303-0.753-2.69-0.753-4.112c0-6.415,5.219-11.633,11.634-11.633 S36.134,23.085,36.134,29.5c0,5.848-4.341,10.688-9.968,11.5H4c-0.827,0-1.5,0.673-1.5,1.5S3.173,44,4,44h36.379l-1.439,1.439 c-0.585,0.585-0.585,1.536,0,2.121C39.223,47.844,39.6,48,40,48s0.777-0.156,1.061-0.439l4-4 C45.646,42.976,45.646,42.024,45.061,41.439z"/></svg>