<?xml version="1.0" encoding="UTF-8" standalone="no"?>
<svg xmlns:dc="http://purl.org/dc/elements/1.1/" xmlns:cc="http://creativecommons.org/ns#" xmlns:rdf="http://www.w3.org/1999/02/22-rdf-syntax-ns#" xmlns:svg="http://www.w3.org/2000/svg" xmlns="http://www.w3.org/2000/svg" xmlns:sodipodi="http://sodipodi.sourceforge.net/DTD/sodipodi-0.dtd" xmlns:inkscape="http://www.inkscape.org/namespaces/inkscape" width="100" height="100" id="svg2" version="1.1" inkscape:version="0.48.4 r9939" sodipodi:docname="sql_file_format.svg">
  <defs id="defs4">
    <clipPath clipPathUnits="userSpaceOnUse" id="clipPath3789">
      <path transform="matrix(0.18360657,0,0,0.18260869,190.37192,664.37679)" d="m 674.28571,549.50507 a 261.42856,262.85715 0 1 1 -522.85712,0 261.42856,262.85715 0 1 1 522.85712,0 z" sodipodi:ry="262.85715" sodipodi:rx="261.42856" sodipodi:cy="549.50507" sodipodi:cx="412.85715" id="path3791" style="fill:#f29f4a;fill-opacity:1;stroke:none" sodipodi:type="arc"/>
    </clipPath>
  </defs>
  <sodipodi:namedview id="base" pagecolor="#ffffff" bordercolor="#666666" borderopacity="1.0" inkscape:pageopacity="0.0" inkscape:pageshadow="2" inkscape:zoom="2.8" inkscape:cx="-70.714286" inkscape:cy="43.114937" inkscape:document-units="px" inkscape:current-layer="layer1" showgrid="false" inkscape:window-width="1366" inkscape:window-height="705" inkscape:window-x="0" inkscape:window-y="26" inkscape:window-maximized="1"/>
  
  <g inkscape:label="Layer 1" inkscape:groupmode="layer" id="layer1" transform="translate(0,-952.36218)">
    <path sodipodi:type="arc" style="fill:#fcd116;fill-opacity:1;stroke:none" id="path2985" sodipodi:cx="412.85715" sodipodi:cy="549.50507" sodipodi:rx="261.42856" sodipodi:ry="262.85715" d="m 674.28571,549.50507 c 0,145.17199 -117.04556,262.85714 -261.42856,262.85714 -144.38301,0 -261.42856,-117.68515 -261.42856,-262.85714 0,-145.172 117.04555,-262.85715 261.42856,-262.85715 144.383,0 261.42856,117.68515 261.42856,262.85715 z" transform="matrix(0.18360657,0,0,0.18260869,-25.80328,902.01778)"/>
    <rect style="opacity:0.4;fill:#f8f6de;fill-opacity:1;stroke:none" id="rect2987" width="58.714287" height="56.214287" x="266.1752" y="708.5069" ry="6.0202026" clip-path="url(#clipPath3789)" transform="translate(-216.1752,237.64099)"/>
    <path style="font-size:25px;font-style:normal;font-weight:normal;line-height:125%;letter-spacing:0px;word-spacing:0px;fill:#f8f6de;fill-opacity:1;stroke:none;font-family:Sans" d="M 63.8125 58.40625 L 61.40625 58.8125 L 61.40625 70.84375 C 61.406249 71.363753 61.455832 71.836669 61.5625 72.25 C 61.682498 72.650001 61.876248 73.001251 62.15625 73.28125 C 62.436247 73.547917 62.81458 73.728334 63.28125 73.875 C 63.761246 74.021667 64.342496 74.111666 65.0625 74.125 L 65.40625 72.125 C 65.086245 72.085002 64.838328 72.035419 64.625 71.96875 C 64.424995 71.888752 64.244996 71.789585 64.125 71.65625 C 64.004996 71.509586 63.928329 71.325003 63.875 71.125 C 63.834996 70.925003 63.812496 70.668337 63.8125 70.375 L 63.8125 58.40625 z M 43.75 63.21875 C 42.536663 63.218761 41.550414 63.50251 40.84375 64.0625 C 40.137082 64.609176 39.812499 65.352509 39.8125 66.3125 C 39.812499 66.80584 39.884582 67.21584 40.03125 67.5625 C 40.191249 67.895839 40.389582 68.197506 40.65625 68.4375 C 40.922915 68.677505 41.233748 68.875838 41.59375 69.0625 C 41.96708 69.235838 42.372496 69.402505 42.8125 69.5625 C 43.532495 69.829171 44.037078 70.085837 44.34375 70.3125 C 44.663744 70.53917 44.843744 70.809586 44.84375 71.15625 C 44.843744 71.529586 44.699577 71.808752 44.40625 71.96875 C 44.112911 72.115418 43.639995 72.187502 43 72.1875 C 42.359996 72.187502 41.787914 72.133335 41.28125 72 C 40.787915 71.866669 40.359998 71.709169 40 71.5625 L 39.59375 73.59375 C 39.820416 73.687084 40.189999 73.790833 40.75 73.9375 C 41.309998 74.0975 42.048747 74.1875 42.96875 74.1875 C 44.342078 74.1875 45.39166 73.944167 46.125 73.4375 C 46.871659 72.917501 47.249992 72.156252 47.25 71.15625 C 47.249992 70.689587 47.213742 70.270837 47.09375 69.9375 C 46.973742 69.604171 46.766659 69.315838 46.5 69.0625 C 46.246659 68.795838 45.931243 68.575005 45.53125 68.375 C 45.131244 68.161672 44.635828 67.932089 44.0625 67.71875 C 43.715828 67.598756 43.427495 67.481673 43.1875 67.375 C 42.947496 67.255007 42.740413 67.169173 42.59375 67.0625 C 42.44708 66.942507 42.347913 66.78959 42.28125 66.65625 C 42.227913 66.522924 42.187497 66.392091 42.1875 66.21875 C 42.187497 65.872091 42.34958 65.597508 42.65625 65.4375 C 42.962913 65.264175 43.350412 65.187509 43.84375 65.1875 C 44.390411 65.187509 44.899161 65.237092 45.3125 65.34375 C 45.725826 65.437092 46.045826 65.536258 46.3125 65.65625 L 46.75 63.71875 C 46.469992 63.612094 46.059993 63.481677 45.5 63.375 C 44.939994 63.255011 44.363328 63.218761 43.75 63.21875 z M 54.25 63.25 C 53.423328 63.250011 52.684579 63.389594 52.03125 63.65625 C 51.377913 63.909593 50.841664 64.27001 50.375 64.75 C 49.921665 65.216675 49.565832 65.788758 49.3125 66.46875 C 49.072499 67.135423 48.937499 67.892089 48.9375 68.71875 C 48.937499 69.532088 49.049999 70.270837 49.25 70.9375 C 49.463332 71.604169 49.738332 72.176252 50.125 72.65625 C 50.511664 73.136251 51.020414 73.514584 51.59375 73.78125 C 52.167079 74.034583 52.815829 74.15625 53.5625 74.15625 C 54.055827 74.15625 54.506243 74.08875 54.90625 73.96875 C 55.319576 73.84875 55.657492 73.709167 55.9375 73.5625 L 55.9375 77.625 L 58.375 77.625 L 58.375 63.8125 C 57.908323 63.679177 57.313741 63.55751 56.59375 63.4375 C 55.873742 63.317511 55.07666 63.250011 54.25 63.25 z M 54.28125 65.34375 C 54.694577 65.343759 55.02791 65.335009 55.28125 65.375 C 55.547909 65.401675 55.764159 65.460008 55.9375 65.5 L 55.9375 71.46875 C 55.724159 71.615419 55.453743 71.741669 55.09375 71.875 C 54.747077 71.995002 54.368744 72.062502 53.96875 72.0625 C 53.088745 72.062502 52.444579 71.756252 52.03125 71.15625 C 51.631246 70.556253 51.406247 69.763337 51.40625 68.75 C 51.406247 67.68334 51.68083 66.850007 52.1875 66.25 C 52.694162 65.636675 53.387911 65.343759 54.28125 65.34375 z M 36.1875 71 C 35.734164 71.000003 35.337915 71.162086 35.03125 71.46875 C 34.724582 71.762086 34.593749 72.127085 34.59375 72.59375 C 34.593749 73.060418 34.724582 73.456667 35.03125 73.75 C 35.337915 74.043333 35.734164 74.1875 36.1875 74.1875 C 36.627497 74.1875 37.00583 74.043333 37.3125 73.75 C 37.632496 73.456667 37.781246 73.060418 37.78125 72.59375 C 37.781246 72.127085 37.632496 71.762086 37.3125 71.46875 C 37.00583 71.162086 36.627497 71.000003 36.1875 71 z " transform="translate(0,952.36218)" id="text3835"/>
    
  </g>

	<metadata>
		<rdf:RDF xmlns:rdf="http://www.w3.org/1999/02/22-rdf-syntax-ns#" xmlns:rdfs="http://www.w3.org/2000/01/rdf-schema#" xmlns:dc="http://purl.org/dc/elements/1.1/">
			<rdf:Description about="https://iconscout.com/legal#licenses" dc:title="sql_file_format" dc:description="sql_file_format" dc:publisher="Iconscout" dc:date="2017-06-27" dc:format="image/svg+xml" dc:language="en">
				<dc:creator>
					<rdf:Bag>
						<rdf:li>Vignesh Oviyan</rdf:li>
					</rdf:Bag>
				</dc:creator>
			</rdf:Description>
		</rdf:RDF>
    </metadata></svg>
