<svg xmlns="http://www.w3.org/2000/svg" width="32" height="32" viewBox="0 0 8.467 8.467"><g transform="matrix(.26458 0 0 .26458 492.441 -744.311)"><path fill="#586597" fill-rule="evenodd" style="line-height:normal;font-variant-ligatures:normal;font-variant-position:normal;font-variant-caps:normal;font-variant-numeric:normal;font-variant-alternates:normal;font-feature-settings:normal;text-indent:0;text-align:start;text-decoration-line:none;text-decoration-style:solid;text-decoration-color:#000;text-transform:none;text-orientation:mixed;shape-padding:0;isolation:auto;mix-blend-mode:normal" d="m -1852.4688,1793.7832 c -0.8712,0 -1.6338,0.5054 -2.1464,1.2363 -0.4715,0.6724 -0.7478,1.5502 -0.791,2.5137 h -0.7891 c -1.3748,0 -2.5,1.1252 -2.5,2.5 v 9.75 c 0,0.6845 0.5656,1.25 1.25,1.25 h 0.75 v 1 h -2 a 0.50005,0.50005 0 0 0 -0.5,0.5 v 1.5 3.25 2 c 0,1.3748 1.1252,2.5 2.5,2.5 v 0.5 c 0,0.8225 0.6775,1.5 1.5,1.5 h 20 c 0.8225,0 1.5,-0.6775 1.5,-1.5 v -0.5 c 1.3748,0 2.5,-1.1252 2.5,-2.5 v -2 -3.25 -1.5 a 0.50005,0.50005 0 0 0 -0.5,-0.5 h -2 v -1 h 0.75 c 0.6844,0 1.25,-0.5655 1.25,-1.25 v -9.75 c 0,-1.3748 -1.1252,-2.5 -2.5,-2.5 h -0.791 c -0.043,-0.9635 -0.3196,-1.8413 -0.791,-2.5137 -0.5126,-0.7309 -1.2753,-1.2363 -2.1465,-1.2363 h -1.5215 -2.5 -6.5 -2 z" color="#000" font-family="sans-serif" font-weight="400" overflow="visible" transform="translate(0 1020.362)" white-space="normal"/><path fill="#bcf3d3" fill-rule="evenodd" style="line-height:normal;font-variant-ligatures:normal;font-variant-position:normal;font-variant-caps:normal;font-variant-numeric:normal;font-variant-alternates:normal;font-feature-settings:normal;text-indent:0;text-align:start;text-decoration-line:none;text-decoration-style:solid;text-decoration-color:#000;text-transform:none;text-orientation:mixed;shape-padding:0;isolation:auto;mix-blend-mode:normal" d="m -1852.4688,1794.7832 h 1.5235 v 6 h -1.5235 c -0.4885,10e-5 -0.9534,-0.2762 -1.3281,-0.8105 -0.3748,-0.5344 -0.6269,-1.314 -0.6269,-2.1895 0,-0.8754 0.2521,-1.6552 0.6269,-2.1894 0.3747,-0.5345 0.8396,-0.8106 1.3281,-0.8106 z" color="#000" font-family="sans-serif" font-weight="400" overflow="visible" transform="translate(0 1020.362)" white-space="normal"/><path fill="#d7edf2" fill-rule="evenodd" style="line-height:normal;font-variant-ligatures:normal;font-variant-position:normal;font-variant-caps:normal;font-variant-numeric:normal;font-variant-alternates:normal;font-feature-settings:normal;text-indent:0;text-align:start;text-decoration-line:none;text-decoration-style:solid;text-decoration-color:#000;text-transform:none;text-orientation:mixed;shape-padding:0;isolation:auto;mix-blend-mode:normal" d="m -1849.9453,1794.7832 h 1 v 10.5 h -1 z" color="#000" font-family="sans-serif" font-weight="400" overflow="visible" transform="translate(0 1020.362)" white-space="normal"/><path fill="#bcf3d3" fill-rule="evenodd" style="line-height:normal;font-variant-ligatures:normal;font-variant-position:normal;font-variant-caps:normal;font-variant-numeric:normal;font-variant-alternates:normal;font-feature-settings:normal;text-indent:0;text-align:start;text-decoration-line:none;text-decoration-style:solid;text-decoration-color:#000;text-transform:none;text-orientation:mixed;shape-padding:0;isolation:auto;mix-blend-mode:normal" d="m -1847.9453,1794.7832 h 5.5 v 6 h -5.5 z" color="#000" font-family="sans-serif" font-weight="400" overflow="visible" transform="translate(0 1020.362)" white-space="normal"/><path fill="#d7edf2" fill-rule="evenodd" style="line-height:normal;font-variant-ligatures:normal;font-variant-position:normal;font-variant-caps:normal;font-variant-numeric:normal;font-variant-alternates:normal;font-feature-settings:normal;text-indent:0;text-align:start;text-decoration-line:none;text-decoration-style:solid;text-decoration-color:#000;text-transform:none;text-orientation:mixed;shape-padding:0;isolation:auto;mix-blend-mode:normal" d="m -1841.4453,1794.7832 h 1 v 10.5 h -1 z" color="#000" font-family="sans-serif" font-weight="400" overflow="visible" transform="translate(0 1020.362)" white-space="normal"/><path fill="#bcf3d3" fill-rule="evenodd" style="line-height:normal;font-variant-ligatures:normal;font-variant-position:normal;font-variant-caps:normal;font-variant-numeric:normal;font-variant-alternates:normal;font-feature-settings:normal;text-indent:0;text-align:start;text-decoration-line:none;text-decoration-style:solid;text-decoration-color:#000;text-transform:none;text-orientation:mixed;shape-padding:0;isolation:auto;mix-blend-mode:normal" d="m -1839.4453,1794.7832 h 1.5215 c 0.4886,0 0.9534,0.2761 1.3281,0.8106 0.3748,0.5342 0.6269,1.314 0.6269,2.1894 0,0.8755 -0.2521,1.6551 -0.6269,2.1895 -0.3747,0.5343 -0.8395,0.8106 -1.3281,0.8105 h -1.5215 z" color="#000" font-family="sans-serif" font-weight="400" overflow="visible" transform="translate(0 1020.362)" white-space="normal"/><path fill="#ffbfbf" fill-rule="evenodd" style="line-height:normal;font-variant-ligatures:normal;font-variant-position:normal;font-variant-caps:normal;font-variant-numeric:normal;font-variant-alternates:normal;font-feature-settings:normal;text-indent:0;text-align:start;text-decoration-line:none;text-decoration-style:solid;text-decoration-color:#000;text-transform:none;text-orientation:mixed;shape-padding:0;isolation:auto;mix-blend-mode:normal" d="M-1856.1953 1798.5332h.8242c.1049.7661.3669 1.459.7559 2.0137.2637.3761.5957.6896.9726.9082l-.5215.834c-.3477.5562-.5312 1.1995-.5312 1.8554v1.1387h-.5c-.8225 0-1.5.6775-1.5 1.5v3.25h-.75c-.144 0-.25-.106-.25-.25v-9.75c0-.8343.6657-1.5 1.5-1.5zM-1835.0215 1798.5332h.8262c.8344 0 1.5.6657 1.5 1.5v9.75c0 .144-.106.25-.25.25h-.75v-3.25c0-.8225-.6775-1.5-1.5-1.5h-.5v-1.1387c0-.6559-.1855-1.2992-.5332-1.8554l-.5215-.836c.3766-.2185.709-.5303.9727-.9062.3889-.5547.651-1.2476.7558-2.0137z" color="#000" font-family="sans-serif" font-weight="400" overflow="visible" transform="translate(0 1020.362)" white-space="normal"/><path fill="#b0dae4" fill-rule="evenodd" style="line-height:normal;font-variant-ligatures:normal;font-variant-position:normal;font-variant-caps:normal;font-variant-numeric:normal;font-variant-alternates:normal;font-feature-settings:normal;text-indent:0;text-align:start;text-decoration-line:none;text-decoration-style:solid;text-decoration-color:#000;text-transform:none;text-orientation:mixed;shape-padding:0;isolation:auto;mix-blend-mode:normal" d="M-1852.6523 1801.7559c.062.01.1201.027.1835.027h1.5235v3.5c-.5453 0-1 .4545-1 1v2c0 .5455.4547 1 1 1v9.5h-2.75v-3.75h.5v-1h-.5v-7.75h.5v-1h-.5v-1.1387c0-.4685.1306-.9288.3789-1.3261zM-1837.7402 1801.7559l.664 1.0625c.2483.3973.3809.8576.3809 1.3261v1.1387h-.5v1h.5v7.75h-.5v1h.5v3.75h-2.75v-9.5c.5454 0 1-.4546 1-1v-2c0-.5453-.4546-1-1-1v-3.5h1.5215c.063 0 .1214-.022.1836-.027zM-1847.9453 1801.7832h5.5v3.5c-.5453 0-1 .4545-1 1v2c0 .5455.4547 1 1 1v11.5h-5.5v-11.5c.5454 0 1-.4546 1-1v-2c0-.5453-.4546-1-1-1z" color="#000" font-family="sans-serif" font-weight="400" overflow="visible" transform="translate(0 1020.362)" white-space="normal"/><path fill="#eef396" fill-rule="evenodd" style="line-height:normal;font-variant-ligatures:normal;font-variant-position:normal;font-variant-caps:normal;font-variant-numeric:normal;font-variant-alternates:normal;font-feature-settings:normal;text-indent:0;text-align:start;text-decoration-line:none;text-decoration-style:solid;text-decoration-color:#000;text-transform:none;text-orientation:mixed;shape-padding:0;isolation:auto;mix-blend-mode:normal" d="m -1855.1953,1806.2832 h 0.5 v 7.75 h -1 v -7.25 c 0,-0.282 0.218,-0.5 0.5,-0.5 z" color="#000" font-family="sans-serif" font-weight="400" overflow="visible" transform="translate(0 1020.362)" white-space="normal"/><path fill="#ffbfbf" fill-rule="evenodd" style="line-height:normal;font-variant-ligatures:normal;font-variant-position:normal;font-variant-caps:normal;font-variant-numeric:normal;font-variant-alternates:normal;font-feature-settings:normal;text-indent:0;text-align:start;text-decoration-line:none;text-decoration-style:solid;text-decoration-color:#000;text-transform:none;text-orientation:mixed;shape-padding:0;isolation:auto;mix-blend-mode:normal" d="M-1850.9453 1806.2832h3v2h-3zM-1842.4453 1806.2832h3v2h-3z" color="#000" font-family="sans-serif" font-weight="400" overflow="visible" transform="translate(0 1020.362)" white-space="normal"/><path fill="#eef396" fill-rule="evenodd" style="line-height:normal;font-variant-ligatures:normal;font-variant-position:normal;font-variant-caps:normal;font-variant-numeric:normal;font-variant-alternates:normal;font-feature-settings:normal;text-indent:0;text-align:start;text-decoration-line:none;text-decoration-style:solid;text-decoration-color:#000;text-transform:none;text-orientation:mixed;shape-padding:0;isolation:auto;mix-blend-mode:normal" d="m -1835.6953,1806.2832 h 0.5 c 0.2821,0 0.5,0.218 0.5,0.5 v 7.25 h -1 z" color="#000" font-family="sans-serif" font-weight="400" overflow="visible" transform="translate(0 1020.362)" white-space="normal"/><path fill="#d7edf2" fill-rule="evenodd" style="line-height:normal;font-variant-ligatures:normal;font-variant-position:normal;font-variant-caps:normal;font-variant-numeric:normal;font-variant-alternates:normal;font-feature-settings:normal;text-indent:0;text-align:start;text-decoration-line:none;text-decoration-style:solid;text-decoration-color:#000;text-transform:none;text-orientation:mixed;shape-padding:0;isolation:auto;mix-blend-mode:normal" d="M-1849.9453 1809.2832h1v13.5h-1zM-1841.4453 1809.2832h1v13.5h-1z" color="#000" font-family="sans-serif" font-weight="400" overflow="visible" transform="translate(0 1020.362)" white-space="normal"/><path fill="#91a6b8" fill-rule="evenodd" style="line-height:normal;font-variant-ligatures:normal;font-variant-position:normal;font-variant-caps:normal;font-variant-numeric:normal;font-variant-alternates:normal;font-feature-settings:normal;text-indent:0;text-align:start;text-decoration-line:none;text-decoration-style:solid;text-decoration-color:#000;text-transform:none;text-orientation:mixed;shape-padding:0;isolation:auto;mix-blend-mode:normal" d="M-1858.1953 1813.0332h1.5v1h-1.5zM-1833.6953 1813.0332h1.5v1h-1.5z" color="#000" font-family="sans-serif" font-weight="400" overflow="visible" transform="translate(0 1020.362)" white-space="normal"/><path fill="#ffbfbf" fill-rule="evenodd" style="line-height:normal;font-variant-ligatures:normal;font-variant-position:normal;font-variant-caps:normal;font-variant-numeric:normal;font-variant-alternates:normal;font-feature-settings:normal;text-indent:0;text-align:start;text-decoration-line:none;text-decoration-style:solid;text-decoration-color:#000;text-transform:none;text-orientation:mixed;shape-padding:0;isolation:auto;mix-blend-mode:normal" d="M-1858.1953 1815.0332h3.5v3.75h-2c-.8343 0-1.5-.6656-1.5-1.5zM-1835.6953 1815.0332h3.5v2.25c0 .8344-.6656 1.5-1.5 1.5h-2z" color="#000" font-family="sans-serif" font-weight="400" overflow="visible" transform="translate(0 1020.362)" white-space="normal"/><path fill="#bcf3d3" fill-rule="evenodd" style="line-height:normal;font-variant-ligatures:normal;font-variant-position:normal;font-variant-caps:normal;font-variant-numeric:normal;font-variant-alternates:normal;font-feature-settings:normal;text-indent:0;text-align:start;text-decoration-line:none;text-decoration-style:solid;text-decoration-color:#000;text-transform:none;text-orientation:mixed;shape-padding:0;isolation:auto;mix-blend-mode:normal" d="M-1858.1953 1819.2676c.4196.3185.9357.5156 1.5.5156h5.75v1h-5.75c-.8343 0-1.5-.6656-1.5-1.5zM-1832.1953 1819.2676v.016c0 .8344-.6656 1.5-1.5 1.5h-5.75v-1h5.75c.5642 0 1.0804-.1971 1.5-.5156z" color="#000" font-family="sans-serif" font-weight="400" overflow="visible" transform="translate(0 1020.362)" white-space="normal"/><path fill="#eef396" fill-rule="evenodd" style="line-height:normal;font-variant-ligatures:normal;font-variant-position:normal;font-variant-caps:normal;font-variant-numeric:normal;font-variant-alternates:normal;font-feature-settings:normal;text-indent:0;text-align:start;text-decoration-line:none;text-decoration-style:solid;text-decoration-color:#000;text-transform:none;text-orientation:mixed;shape-padding:0;isolation:auto;mix-blend-mode:normal" d="M-1855.6953 1821.7832h4.75v1h-4.25c-.282 0-.5-.2179-.5-.5zM-1847.9453 1821.7832h5.5v1h-5.5zM-1839.4453 1821.7832h4.75v.5c0 .2821-.2179.5-.5.5h-4.25z" color="#000" font-family="sans-serif" font-weight="400" overflow="visible" transform="translate(0 1020.362)" white-space="normal"/></g></svg>