<svg xmlns="http://www.w3.org/2000/svg" width="32" height="32" viewBox="0 0 32 32"><g transform="translate(285 -1019.362)"><rect width="2" height="1.618" x="-265" y="1025.362" fill="#cad1d8" rx="0" ry="0"/><path fill="none" stroke="#35424d" stroke-width="2" d="m -274,1025.3622 c 0,-1.108 0.89201,-2 2.00002,-2 l 5.99996,0 c 1.10801,0 2.00002,0.892 2.00002,2"/><rect width="2" height="1.618" x="-275" y="1025.362" fill="#cad1d8" rx="0" ry="0"/><rect width="4" height="2" x="-261" y="1025.362" fill="#35424d" rx="1" ry="1"/><rect width="4" height="2" x="-281" y="1025.362" fill="#35424d" rx="1" ry="1"/><rect width="30" height="21" x="-284" y="1027.362" fill="#576d7e" rx="1" ry="1"/><rect width="2" height="9" x="-260" y="-1048.362" fill="#2b4255" rx="0" ry="0" transform="scale(1 -1)"/><rect width="2" height="9" x="-280" y="-1048.362" fill="#2b4255" rx="0" ry="0" transform="scale(1 -1)"/><path fill="#2b4255" d="m -283.2832,1027.4188 c -0.41245,0.1233 -0.7168,0.4898 -0.7168,0.9434 l 0,8.2656 c 4.14943,1.1151 7.29375,1.7754 10.01367,1.7949 l 9.98047,0 c 2.81577,0 5.77272,-0.6481 10.00586,-1.7929 l 0,-8.2676 c 0,-0.4536 -0.30435,-0.8201 -0.7168,-0.9434 z"/><path fill="#4a5c6b" d="m -283.93359,1026.3583 c -0.59095,0 -1.06641,0.4755 -1.06641,1.0664 l 0,7.8789 c 4.68437,1.2912 8.06981,2.0366 11.01396,2.0577 0.16221,0 9.81726,0 9.97998,0 3.04462,0 6.18524,-0.7289 11.00606,-2.0577 l 0,-7.8789 c 0,-0.5909 -0.47546,-1.0664 -1.06641,-1.0664 z"/><rect width="2" height="8" x="-280" y="1026.362" fill="#2b4255" rx="0" ry="0"/><rect width="6" height="8" x="-282" y="1033.362" fill="#1e2e3b" fill-opacity=".213" rx=".622" ry=".553"/><rect width="4" height="6" x="-281" y="1034.362" fill="#e9eded" rx=".414" ry=".414"/><rect width="4" height="3" x="-281" y="1037.362" fill="#cad1d8" rx=".414" ry=".414"/><rect width="2" height="1" x="-280" y="1038.362" fill="#34485c" rx=".188" ry=".188"/><rect width="6" height="8" x="-262" y="1033.362" fill="#1e2e3b" fill-opacity=".213" rx=".622" ry=".553"/><rect width="4" height="6" x="-261" y="1034.362" fill="#e9eded" rx=".414" ry=".414"/><rect width="4" height="3" x="-261" y="1037.362" fill="#cad1d8" rx=".414" ry=".414"/><rect width="2" height="1" x="-260" y="1038.362" fill="#34485c" rx=".188" ry=".188"/><rect width="2" height="8" x="-260" y="1026.362" fill="#2b4255" rx="0" ry="0"/></g></svg>